<?xml version="1.0" encoding="UTF-8"?>
<svg id="_图层_2" data-name="图层 2" xmlns="http://www.w3.org/2000/svg" viewBox="0 0 707.65 197">
  <defs>
    <style>
      .cls-1 {
        fill: #fff;
      }

      .cls-2 {
        fill: #49b892;
      }

      .cls-3 {
        fill: #e0486b;
      }
    </style>
  </defs>
  <g>
    <rect id="back" class="cls-1" width="197" height="197"/>
    <circle id="point" class="cls-2" cx="48.82" cy="48.95" r="29.19"/>
    <path class="cls-3" d="M184.02,21.98c0,19.32-15.72,35.03-35.03,35.03s-35.03-15.72-35.03-35.03c0-8.32,2.92-15.96,7.78-21.98h-13.16c-3.57,6.53-5.6,14.02-5.6,21.98,0,17.5,9.82,32.74,24.24,40.52-14.42,7.78-24.24,23.02-24.24,40.52,0,25.37,20.64,46.01,46.01,46.01s46.01-20.64,46.01-46.01c0-17.5-9.82-32.74-24.24-40.52,14.42-7.78,24.24-23.02,24.24-40.52,0-7.95-2.03-15.44-5.6-21.98h-13.16c4.86,6.01,7.78,13.66,7.78,21.98Zm0,81.04c0,19.32-15.72,35.03-35.03,35.03s-35.03-15.72-35.03-35.03,15.72-35.03,35.03-35.03,35.03,15.72,35.03,35.03Z"/>
    <path class="cls-3" d="M197,197v-57.14c-10.12-16-27.96-26.66-48.25-26.66-21.7,0-40.6,12.18-50.25,30.06-9.64-17.88-28.55-30.06-50.25-30.06-20.29,0-38.13,10.66-48.25,26.66v57.14H14.06c-5.79-7.38-9.25-16.67-9.25-26.75,0-23.95,19.49-43.44,43.44-43.44,23.95,0,43.44,19.49,43.44,43.44,0,10.08-3.46,19.37-9.25,26.75h32.11c-5.79-7.38-9.25-16.67-9.25-26.75,0-23.95,19.49-43.44,43.44-43.44s43.44,19.49,43.44,43.44c0,10.08-3.46,19.37-9.25,26.75h14.06Z"/>
    <circle class="cls-2" cx="242.25" cy="169.25" r="27.75"/>
    <g>
      <path class="cls-3" d="M434.76,196.57c-30.36,0-55.07-24.7-55.07-55.07s24.7-55.07,55.07-55.07,55.07,24.7,55.07,55.07-24.7,55.07-55.07,55.07Zm0-100.13c-24.85,0-45.07,20.22-45.07,45.07s20.22,45.07,45.07,45.07,45.07-20.22,45.07-45.07-20.22-45.07-45.07-45.07Z"/>
      <path class="cls-3" d="M366.48,173.35c-8.16,8.16-19.43,13.21-31.85,13.21-24.85,0-45.07-20.22-45.07-45.07s20.22-45.07,45.07-45.07c12.42,0,23.69,5.05,31.85,13.21l7.07-7.07c-9.97-9.97-23.74-16.15-38.92-16.15-30.36,0-55.07,24.7-55.07,55.07s24.7,55.07,55.07,55.07c15.18,0,28.95-6.18,38.92-16.15l-7.07-7.07Z"/>
      <path class="cls-3" d="M552.46,96.43c24.85,0,45.07,20.22,45.07,45.07h10c0-24.85,20.22-45.07,45.07-45.07s45.07,20.22,45.07,45.07h10c0-30.36-24.7-55.07-55.07-55.07-22.2,0-41.36,13.21-50.07,32.18-8.71-18.97-27.87-32.18-50.07-32.18-30.36,0-55.07,24.7-55.07,55.07h10c0-24.85,20.22-45.07,45.07-45.07Z"/>
    </g>
  </g>
  <path class="cls-1" d="M263.38,24.95v58.24h-7.39v-10.01c-3.14,3.82-6.66,6.69-10.57,8.62-3.91,1.93-8.18,2.89-12.82,2.89-8.24,0-15.28-2.99-21.12-8.97-5.83-5.98-8.75-13.25-8.75-21.81s2.94-15.56,8.83-21.52c5.89-5.96,12.97-8.94,21.25-8.94,4.78,0,9.11,1.02,12.98,3.05,3.87,2.03,7.27,5.09,10.2,9.15v-10.71h7.39Zm-29.95,5.73c-4.17,0-8.02,1.03-11.55,3.07-3.53,2.05-6.34,4.93-8.42,8.64-2.09,3.71-3.13,7.63-3.13,11.76s1.05,8.02,3.15,11.76c2.1,3.74,4.93,6.66,8.47,8.74,3.55,2.09,7.35,3.13,11.42,3.13s7.98-1.03,11.66-3.1c3.67-2.07,6.5-4.87,8.47-8.39,1.98-3.53,2.97-7.5,2.97-11.92,0-6.74-2.22-12.37-6.66-16.9-4.44-4.53-9.9-6.79-16.39-6.79Z"/>
  <path class="cls-1" d="M280.35,24.95h7.49v10.71c2.96-4.07,6.36-7.12,10.21-9.15s8.15-3.05,12.89-3.05c8.27,0,15.35,2.98,21.23,8.94,5.88,5.96,8.83,13.13,8.83,21.52s-2.92,15.84-8.74,21.81c-5.83,5.98-12.86,8.97-21.1,8.97-4.64,0-8.9-.96-12.78-2.89-3.89-1.93-7.4-4.8-10.54-8.62v31.32h-7.49V24.95Zm29.98,5.73c-6.48,0-11.94,2.26-16.37,6.79-4.43,4.53-6.65,10.16-6.65,16.9,0,4.42,.99,8.4,2.96,11.92,1.98,3.53,4.81,6.33,8.49,8.39s7.58,3.1,11.67,3.1,7.81-1.04,11.35-3.13c3.54-2.08,6.37-5,8.47-8.74,2.1-3.74,3.15-7.66,3.15-11.76s-1.04-8.06-3.12-11.76c-2.08-3.71-4.89-6.59-8.41-8.64-3.53-2.05-7.37-3.07-11.54-3.07Z"/>
  <path class="cls-1" d="M382.6,23.45c8.97,0,16.41,3.25,22.31,9.74,5.36,5.92,8.04,12.94,8.04,21.04s-2.83,15.25-8.5,21.33c-5.67,6.08-12.95,9.13-21.85,9.13s-16.24-3.04-21.91-9.13c-5.67-6.08-8.5-13.2-8.5-21.33s2.68-15.06,8.04-20.98c5.9-6.53,13.35-9.8,22.36-9.8Zm-.03,7.33c-6.23,0-11.59,2.3-16.06,6.91-4.48,4.6-6.71,10.17-6.71,16.7,0,4.21,1.02,8.14,3.06,11.78,2.04,3.64,4.8,6.45,8.27,8.43,3.47,1.98,7.29,2.97,11.44,2.97s7.97-.99,11.44-2.97c3.47-1.98,6.23-4.79,8.27-8.43,2.04-3.64,3.06-7.57,3.06-11.78,0-6.53-2.25-12.1-6.74-16.7-4.5-4.6-9.84-6.91-16.04-6.91Z"/>
  <path class="cls-2" d="M429.41,.97c1.71,0,3.16,.61,4.37,1.82,1.21,1.21,1.81,2.68,1.81,4.39s-.6,3.12-1.81,4.34c-1.21,1.21-2.67,1.82-4.37,1.82s-3.11-.61-4.32-1.82c-1.21-1.21-1.81-2.66-1.81-4.34s.6-3.18,1.81-4.39c1.21-1.21,2.65-1.82,4.32-1.82Z"/>
  <rect class="cls-1" x="425.69" y="24.95" width="7.5" height="58.24"/>
  <path class="cls-1" d="M448.76,24.95h7.5v10.44c3-4,6.32-6.99,9.96-8.97,3.64-1.98,7.6-2.97,11.88-2.97s8.22,1.11,11.59,3.32c3.37,2.21,5.86,5.19,7.47,8.94,1.61,3.75,2.41,9.58,2.41,17.5v29.98h-7.5v-27.78c0-6.71-.28-11.19-.83-13.44-.87-3.85-2.53-6.75-5-8.7-2.46-1.94-5.68-2.92-9.64-2.92-4.53,0-8.59,1.5-12.18,4.5-3.59,3-5.95,6.71-7.09,11.13-.71,2.89-1.07,8.17-1.07,15.85v21.36h-7.5V24.95Z"/>
  <path class="cls-1" d="M522.15,3.32h7.49V24.95h11.88v6.48h-11.88v51.77h-7.49V31.43h-10.22v-6.48h10.22V3.32Z"/>
  <path class="cls-3" d="M552.72,24.95h7.49v10.06c2.61-3.71,5.29-6.42,8.04-8.14,3.79-2.28,7.77-3.43,11.95-3.43,2.82,0,5.5,.55,8.04,1.66,2.54,1.11,4.61,2.58,6.22,4.42,1.61,1.84,3,4.47,4.18,7.9,2.49-4.57,5.61-8.04,9.35-10.41,3.74-2.37,7.76-3.56,12.07-3.56,4.02,0,7.58,1.02,10.66,3.05,3.08,2.03,5.37,4.87,6.86,8.51,1.5,3.64,2.24,9.1,2.24,16.38v31.8h-7.66v-31.8c0-6.25-.45-10.54-1.33-12.87-.89-2.34-2.41-4.22-4.56-5.65-2.15-1.43-4.72-2.14-7.71-2.14-3.63,0-6.95,1.07-9.95,3.21s-5.2,5-6.59,8.56c-1.39,3.57-2.08,9.53-2.08,17.88v22.8h-7.49v-29.82c0-7.03-.44-11.8-1.31-14.32-.88-2.52-2.4-4.53-4.58-6.05-2.18-1.52-4.76-2.27-7.76-2.27-3.46,0-6.7,1.04-9.72,3.13-3.02,2.09-5.25,4.9-6.69,8.43s-2.17,8.94-2.17,16.22v24.68h-7.49V24.95Z"/>
  <path class="cls-3" d="M689.39,39.99c5.32,2.64,9.13,5.66,11.43,9.05,2.3,3.39,3.45,7.25,3.45,11.56,0,6.07-1.98,11.42-5.94,16.06-4.85,5.67-11.79,8.51-20.82,8.51s-15.31-2.49-19.81-7.47c-4.5-4.98-6.75-10.47-6.75-16.46,0-4.39,1.18-8.34,3.53-11.86,2.36-3.51,6.28-6.65,11.78-9.39-3.85-2-6.75-4.48-8.67-7.44-1.93-2.96-2.89-6.14-2.89-9.53s1.03-6.77,3.08-10.04c2.05-3.27,4.89-5.83,8.51-7.71s7.54-2.81,11.75-2.81,7.9,.95,11.4,2.84c3.5,1.89,6.24,4.46,8.22,7.71,1.98,3.25,2.97,6.66,2.97,10.22s-.94,6.75-2.81,9.53c-1.87,2.78-4.68,5.19-8.43,7.23Zm-11.38,3.96c-5.42,0-9.96,1.76-13.63,5.27-3.67,3.52-5.51,7.61-5.51,12.29,0,2.89,.78,5.62,2.35,8.19,1.57,2.57,3.76,4.55,6.58,5.94,2.82,1.39,6.08,2.09,9.78,2.09,5.74,0,10.3-1.69,13.68-5.09,3.39-3.39,5.08-7.35,5.08-11.88s-1.79-8.29-5.37-11.7c-3.58-3.41-7.9-5.11-12.96-5.11Zm-.37-33.83c-4.33,0-7.91,1.28-10.75,3.83-2.84,2.55-4.26,5.59-4.26,9.13s1.53,6.67,4.59,9.5c3.06,2.84,6.62,4.26,10.7,4.26,2.61,0,5.08-.64,7.4-1.93,2.32-1.28,4.14-3.04,5.44-5.27,1.3-2.23,1.96-4.47,1.96-6.72,0-3.18-1.29-6.1-3.86-8.78-2.57-2.68-6.31-4.01-11.21-4.01Z"/>
</svg>